<?xml version="1.0" encoding="utf-8"?>
<!-- Generator: Adobe Illustrator 22.1.0, SVG Export Plug-In . SVG Version: 6.00 Build 0)  -->
<svg version="1.1" id="Layer_1" xmlns="http://www.w3.org/2000/svg" xmlns:xlink="http://www.w3.org/1999/xlink" x="0px" y="0px"
	 viewBox="0 0 445.6 492.6" style="enable-background:new 0 0 445.6 492.6;" xml:space="preserve">
<style type="text/css">
	.st0{fill:#231F20;stroke:#FFFFFF;stroke-width:5;stroke-linecap:round;stroke-linejoin:round;}
</style>
<title>fairy_mono</title>
<g id="Fairy_Body">
	<path class="st0" d="M222.2,357.1c0.1,1.5,2,6,2,6s-0.7,1.9-0.8,8.7s0.3,14.3,0.6,22.6c0.4,7.6,1.4,15.1,2.8,22.5
		c1.1,6.4,0.6,8,1,13.9s1.7,7.9,1.7,7.9c-1.5,0.8-2.9,1.8-4.1,3c-2.1,2.1-1.3,5.3-0.6,8.4s2.9,6,4.9,8.8c2.3,3.4,4.1,7,5.4,10.9
		c1,3.4,2.4,8.7,3,11.4c0.6,2.3,1.5,4.6,2.6,6.7c0.5,0.8,2.4,2.7,4.1,2.2s1.5-1.7,2-2.1s1.5-0.4,2.2-0.9s0.8-1.2,1.6-1.9
		s1.1-0.6,2-1.3s1.2-1.5,1.6-1.8c0.4-0.2,0.7-0.4,1.1-0.5c0.4-0.2,0.3-0.1,0.8-0.7c0.5-0.6,0.2-1.4,0.4-2.1s1.4-2,1.6-2.8
		c0.3-0.8,0.3-2.3-0.8-4.5c-0.8-1.5-1.9-2.8-3.2-3.9c0.2-1.1,0.2-2.1,0-3.2c-0.3-2.2-4-7.8-4.9-9.3s-4.6-7.5-4.1-13.8
		s3.8-16.2,5.1-27.8s2.7-28.3,2.5-33.3s-3.5-14.7-3.5-14.7s0.6-2.2,2.6-8.2c3.9-11.1,7.2-22.4,9.8-33.9c2.8-13.4,5.2-31.6,5.6-41.3
		s-0.9-18.5-2.4-29.1c-1.5-10.6-6.7-21.7-9.5-29.6c-2.8-7.9-6-20.2-5.2-30s3.1-23,3.7-27.6s5.9-3.1,10.6,1.6
		c4.7,4.7,16.8,14.8,18.1,15.9c1.3,1.1,12.4,10.1,14.7,11.9s11.3,5.2,16.7,8.7s18.8,14.1,23.5,17.3s16.2,10.9,18,13.5
		s3,8.1,3.9,11.3s3.9,6.3,5.7,8.1c1.8,1.8,4.2,3.2,5.4,2.6c1.2-0.7,0.5-1.9-0.3-4c-0.9-2.1-3-3.2-4.1-5.2s-1.9-7.6-1.9-7.6
		s0-1.2,2.9,1.5s7.7,3.5,7.7,3.5s0.9,2.1,2.4,5.3c1.4,2.8,3,5.6,4.6,8.3c2,3.4,4.9,5.3,5.6,3.2s-2.1-5.2-5.3-14.9
		c-3.1-9.7-4-8.4-7.2-10.6s-12.2-6.8-19.3-13.7s-7.7-9.2-19-20c-11.3-10.8-26-20.2-26-20.2s-5.1-7.7-6.9-10s-11.1-10.5-17.5-17.1
		s-20.4-22-31.6-25.8c-12.7-4.3-32.2,3.5-32.2,3.5l0,0c0,0-19.5-7.8-32.2-3.5c-11.2,3.8-25.2,19.1-31.6,25.8s-15.6,14.9-17.5,17.1
		s-6.9,10-6.9,10s-14.8,9.3-26,20.2c-11.2,10.8-11.9,13.1-18.9,20S73,233.8,69.8,236s-4.1,0.9-7.2,10.6c-3.1,9.7-6,12.8-5.3,14.9
		s3.6,0.2,5.6-3.2c1.7-2.7,3.2-5.4,4.6-8.3c1.5-3.1,2.4-5.3,2.4-5.3s4.8-0.8,7.7-3.5s2.9-1.5,2.9-1.5s-0.7,5.7-1.9,7.7
		s-3.3,3.1-4.1,5.2s-1.5,3.3-0.3,4s3.6-0.7,5.4-2.6s4.8-5,5.7-8.1s2.2-8.8,3.9-11.3s13.2-10.2,18-13.5s18-13.9,23.5-17.3
		s14.5-6.9,16.7-8.7s13.4-10.8,14.6-11.9s13.4-11.1,18.1-15.9s10-6.2,10.6-1.6c0.6,4.6,2.9,17.8,3.7,27.6s-2.4,22.1-5.2,30
		s-8,19-9.5,29.6c-1.5,10.6-2.8,19.4-2.4,29.1s2.8,27.9,5.6,41.3c2.6,11.5,5.9,22.8,9.8,33.9c2.1,6,2.6,8.2,2.6,8.2
		s-3.5,9.6-3.6,14.6s1.2,21.7,2.5,33.3s4.7,21.6,5.1,27.8s-3.3,12.3-4.1,13.8s-4.6,7.1-4.9,9.3c-0.2,1.1-0.2,2.1,0,3.2
		c-1.3,1.1-2.4,2.4-3.2,3.9c-1.1,2.3-1.1,3.7-0.8,4.5s1.5,2.2,1.6,2.8s-0.1,1.5,0.4,2.1s0.4,0.5,0.8,0.7c0.4,0.1,0.8,0.3,1.1,0.5
		c0.3,0.3,0.6,1.1,1.6,1.8s1.2,0.6,2,1.3s0.9,1.4,1.6,1.9s1.7,0.4,2.2,0.9s0.3,1.6,2,2.1s3.6-1.4,4.1-2.2c1.1-2.1,2-4.4,2.6-6.7
		c0.6-2.7,2-8,3-11.4c1.3-3.9,3.1-7.6,5.4-10.9c2-2.7,4.3-5.6,4.9-8.8s1.5-6.4-0.6-8.4c-1.2-1.2-2.6-2.2-4.1-3c0,0,1.3-1.9,1.7-7.9
		s-0.1-7.6,1-13.9c1.5-7.4,2.4-14.9,2.8-22.5c0.3-8.4,0.7-15.9,0.6-22.6s-0.8-8.7-0.8-8.7s1.9-4.5,2-6"/>
	<line class="st0" x1="222.3" y1="357.1" x2="222.3" y2="284"/>
	<path class="st0" d="M222.2,259v25c5.1,2.6,20.6,7.8,32.4,0"/>
	<path class="st0" d="M222.2,284.1c-5.1,2.6-20.6,7.8-32.4,0"/>
</g>
<g id="Fairy_Skirt">
	<polygon class="st0" points="185.9,232.3 148.5,317.3 175,310.3 170.7,322.5 197.5,317.3 195,328.1 217.7,318.3 217.7,331.3 
		239.7,316.7 241.9,326.7 264.1,311.4 268.1,321.7 283.6,305 299.1,309.4 258.7,232.3 	"/>
	<line class="st0" x1="217.7" y1="318.3" x2="220" y2="232.3"/>
	<line class="st0" x1="197.5" y1="317.3" x2="209" y2="232.3"/>
	<line class="st0" x1="175" y1="310.3" x2="196.7" y2="232.3"/>
	<line class="st0" x1="239.7" y1="316.7" x2="231.1" y2="232.3"/>
	<line class="st0" x1="264.1" y1="311.4" x2="240.7" y2="232.3"/>
	<line class="st0" x1="283.6" y1="305" x2="250.6" y2="232.3"/>
</g>
<g id="Fairy_Wings">
	<path class="st0" d="M201.1,193.9c-30.1-6.9-43.7-11.7-56.9-17.3s-23.9-12.1-33.3-17.6c-9.8-5.8-19.2-12.3-28.1-19.4
		c-9.9-7.6-16.3-14.2-21.4-18.9c-8.2-8.2-15.7-17-22.5-26.4c-5.9-8.3-11.2-17-16-26c-4.8-8.9-9-18.1-12.4-27.7
		c-3.3-9.1-4.2-13.3-6-19.2S1.5,8.2,3.6,5.7s3.5-3.6,7.6-3.1s16.2,3.7,23.7,5.7s23.8,9.3,30.6,13c10.9,6.3,21.2,13.7,30.7,22
		c12.2,10.6,22.3,20.4,30.4,28s32,31.8,38.7,39.3s14.1,15.9,19.9,24.5s22.4,34.6,25.8,42s-2.4,18.2-2.4,18.2L201.1,193.9z"/>
	<path class="st0" d="M202.8,206.4c-8.8,4.4-40.8,17-59.9,29.9s-34.1,28.5-39,35.8S86,299.2,84,305.4s-5.1,15-3.9,17.8
		s22.8,2.1,30.8-0.6s34.9-16.3,47.7-25.8s29.6-26.4,35.9-38.1c6.3-11.7,15.5-31.5,16.2-35.1s-2.2-17.6-2.2-17.6
		S206.3,204.6,202.8,206.4z"/>
	<path class="st0" d="M11.6,25.5C6.3,17.6-7.3-7.8,26,11.3"/>
	<path class="st0" d="M22.6,55.2C5.3,28.4,4.8,8.5,39.6,38.4"/>
	<path class="st0" d="M55.9,23.2C37.2,9.7,7.1-2.8,39.5,38.4"/>
	<path class="st0" d="M55.9,74.6C25.4,33.2,36.7,25.3,74.9,56.9"/>
	<path class="st0" d="M92.1,40.8C52.7,10.9,41.7,17.5,74.9,56.8"/>
	<path class="st0" d="M55.9,74.6C22,37.5,11,45.3,36.7,91.2"/>
	<path class="st0" d="M92.1,92.1c-61.9-46.8-29.4,7.8-21.6,18"/>
	<path class="st0" d="M111.3,75C71.6,41.6,60.6,54.1,92.1,91.8"/>
	<path class="st0" d="M70.4,110.1C55.8,96.9,40.7,86,36.7,91.2"/>
	<path class="st0" d="M111.3,75C99.1,59.3,88.7,43.9,92.5,40.1"/>
	<path class="st0" d="M110.6,135.2c-12.3-15.2-48.4-78.6,24.7-18.9"/>
	<path class="st0" d="M135.3,116.3c-18.9-20.3-53.4-74.9,21.4-14.9"/>
	<path class="st0" d="M110.6,135.2c-24-25.3-62-45.4-26.3,5.7"/>
	<path class="st0" d="M186.4,136.9c-83.4-53-44.8,2.8-31.3,17.7"/>
	<path class="st0" d="M155.1,154.6c-50.5-38.9-64.1-21.4-10.4,22.3"/>
	<path class="st0" d="M191.7,191.7c-54.1-34.3-46.4-53.8,11.5-28.4"/>
	<path class="st0" d="M87.8,306.9c-11.7,12.9-9.3,22.8,11.5,13.3"/>
	<path class="st0" d="M114.9,295.8c-17.6,15.8-30.5,37.6,14.1,18.5"/>
	<path class="st0" d="M114.6,296.1c-24.1,17.9-40,20.2-13.9-19.4"/>
	<path class="st0" d="M129.8,265.2c-24.1,29.2-21.3,47.1,20,22.9"/>
	<path class="st0" d="M149.8,288.1c-20.8,18.2-21,21.7-20.8,26.2"/>
	<path class="st0" d="M129.8,265.2c-19.2,14.7-26.3,11.5-28.4,10.4"/>
	<path class="st0" d="M163.2,252.5c-18,23.4-29.4,60.8,25.3,15.1"/>
	<path class="st0" d="M163.2,252.5c-31.8,25.1-52,17.6-11.8-21.6"/>
	<path class="st0" d="M23.9,51.8c-9-10-9.6-10.7-15.2-15.9"/>
	<path class="st0" d="M55.9,23.2c-11-11-9.8-9.9-11.1-11.5"/>
	<path class="st0" d="M209.8,226.2c-41.1,37.8-74.2,39.9-15.6-15.9"/>
	<path class="st0" d="M244.5,193.9c30.1-6.9,43.7-11.7,56.9-17.3s23.9-12.1,33.3-17.6c9.8-5.8,19.2-12.3,28.1-19.4
		c9.9-7.6,16.3-14.2,21.4-18.9c8.2-8.2,15.7-17,22.5-26.4c5.9-8.3,11.2-17,16-26c4.8-8.9,9-18.1,12.4-27.7c3.4-9.1,4.2-13.3,6-19.2
		c1.8-5.9,3-13.3,0.9-15.8s-3.5-3.6-7.6-3.1c-4.2,0.5-16.3,3.6-23.8,5.7s-23.8,9.2-30.6,13c-10.9,6.3-21.2,13.7-30.7,22
		c-12.2,10.6-22.3,20.4-30.4,28c-8.1,7.6-32,31.8-38.7,39.3c-6.7,7.6-14,15.9-19.9,24.5c-5.9,8.7-22.4,34.6-25.8,42
		s2.4,18.2,2.4,18.2L244.5,193.9z"/>
	<path class="st0" d="M242.8,206.4c8.8,4.4,40.8,17,59.9,29.9s34.1,28.5,39,35.8s17.9,27.2,19.9,33.4s5.1,15,3.9,17.8
		c-1.2,2.8-22.8,2.1-30.8-0.6c-8-2.7-34.9-16.3-47.7-25.8c-12.8-9.5-29.6-26.4-35.9-38.1c-6.3-11.7-15.5-31.5-16.2-35.1
		s2.2-17.6,2.2-17.6S239.3,204.6,242.8,206.4z"/>
	<path class="st0" d="M434,25.5c5.3-7.8,18.9-33.3-14.4-14.2"/>
	<path class="st0" d="M423,55.2c17.2-26.7,17.8-46.7-17-16.8"/>
	<path class="st0" d="M389.6,23.2C408.3,9.7,438.5-2.8,406,38.4"/>
	<path class="st0" d="M389.6,74.6c30.6-41.4,19.3-49.3-18.9-17.7"/>
	<path class="st0" d="M353.5,40.8c39.3-29.9,50.3-23.2,17.2,16.1"/>
	<path class="st0" d="M389.6,74.6c33.9-37.1,44.9-29.3,19.3,16.6"/>
	<path class="st0" d="M353.5,92.1c61.9-46.8,29.5,7.8,21.6,18"/>
	<path class="st0" d="M334.3,75C374,41.6,385,54.1,353.5,91.8"/>
	<path class="st0" d="M375.1,110.1c14.6-13.3,29.8-24.1,33.8-18.9"/>
	<path class="st0" d="M334.3,75c12.2-15.7,22.6-31.1,18.8-34.9"/>
	<path class="st0" d="M335,135.2c12.3-15.2,48.4-78.6-24.7-18.9"/>
	<path class="st0" d="M310.3,116.3c18.9-20.3,53.4-74.9-21.4-14.9"/>
	<path class="st0" d="M335,135.2c24-25.3,62-45.4,26.3,5.7"/>
	<path class="st0" d="M259.1,136.9c83.4-53,44.8,2.8,31.3,17.7"/>
	<path class="st0" d="M290.5,154.6c50.5-38.9,64.1-21.4,10.4,22.3"/>
	<path class="st0" d="M253.9,191.7c54.1-34.3,46.4-53.8-11.5-28.4"/>
	<path class="st0" d="M421.6,51.8c9-10,9.6-10.7,15.2-15.9"/>
	<path class="st0" d="M389.6,23.2c11-11,9.8-9.9,11.1-11.5"/>
	<path class="st0" d="M357.8,306.9c11.7,12.9,9.3,22.8-11.5,13.3"/>
	<path class="st0" d="M330.7,295.8c17.6,15.8,30.5,37.6-14.2,18.5"/>
	<path class="st0" d="M331,296.1c24.1,17.9,40,20.2,13.8-19.4"/>
	<path class="st0" d="M315.8,265.2c24,29.2,21.3,47.1-20,22.9"/>
	<path class="st0" d="M295.8,288.1c20.7,18.2,21,21.7,20.8,26.2"/>
	<path class="st0" d="M315.8,265.2c19.2,14.7,26.3,11.5,28.4,10.4"/>
	<path class="st0" d="M282.4,252.5c18,23.4,29.5,60.8-25.3,15.1"/>
	<path class="st0" d="M282.4,252.5c31.8,25.1,52,17.6,11.8-21.6"/>
	<path class="st0" d="M235.8,226.2c41.1,37.8,74.2,39.9,15.6-15.9"/>
	<path class="st0" d="M217.9,59.9c0,0,5.9-4,10.6-4.2s10.8-0.1,16.6,7.4s7,14.7,6.9,24.4s-0.1,26.4-0.5,32.1s0.2,15.5,1.2,24.4
		s1.9,18.5,1.9,21.1s1.6,6.3-9.6,10.7c-11.2,4.4-11.8,0.8-20.2,0.8s-10.7,1.2-20.2-3.4s-14.1-4.7-12.5-12.7
		c1.4-8.4,2.2-16.8,2.3-25.3c0-5.3-0.6-28.3-0.9-36.5s-1.7-24.3,7.3-33S217.9,59.9,217.9,59.9z"/>
	<path class="st0" d="M200.1,171c1.8-9.6,4-33.1,3.7-53.4s-0.3-46.2,5.5-49.2s8.2-1.7,8.2-1.7s12.5-6,19.1-0.2s4.6,28.2,4.2,40.3
		c-0.3,12,0.1,24,1.2,36c1,11.2,3.6,32.3,3.6,32.3"/>
	<path class="st0" d="M213.9,176c2.3-13,3.3-40.5,2.3-55s-1-35.3-0.2-41.5s1.7-10.3,1.7-10.3s12.1-1.5,11.8,10.8s-1.2,21.1-1.3,39.7
		c-0.2,19,1.8,29.5,2.5,37.5c0.5,6.5,0.7,13,0.5,19.5"/>
</g>
</svg>
