<?xml version="1.0" encoding="utf-8"?>
<!-- Generator: Adobe Illustrator 22.1.0, SVG Export Plug-In . SVG Version: 6.00 Build 0)  -->
<svg version="1.1" id="Layer_2_1_" xmlns="http://www.w3.org/2000/svg" xmlns:xlink="http://www.w3.org/1999/xlink" x="0px" y="0px"
	 viewBox="0 0 208.4 147.1" style="enable-background:new 0 0 208.4 147.1;" xml:space="preserve">
<style type="text/css">
	.st0{fill:#231F20;stroke:#FFFFFF;stroke-width:1.5;stroke-miterlimit:10;}
	.st1{fill:#231F20;stroke:#FFFFFF;stroke-width:1.5;stroke-linecap:round;stroke-linejoin:round;}
</style>
<title>pegasus_mono</title>
<path class="st0" d="M103.8,90.1h5.1c2.3-0.2,7.1-2.6,7.5-4s-0.1-3-0.3-4.4c-0.3-2.1-0.5-4.3-0.6-6.5c-0.1-1.4-1-12.1-0.2-13.7
	c0.7-1.5,1.1-3.2,1.2-4.9c0.2-1.7-0.8-6.4-1.3-9.1s-1.2-2.9-2.3-3.5c-0.3-0.2-0.7-0.3-1.1-0.3H96c-0.4,0-0.8,0.1-1.1,0.3
	c-1.2,0.6-1.8,0.8-2.3,3.5s-1.5,7.4-1.3,9.1c0.1,1.7,0.5,3.3,1.2,4.9c0.8,1.6-0.1,12.3-0.2,13.7c-0.1,2.2-0.3,4.3-0.6,6.5
	c-0.3,1.4-0.8,3-0.3,4.4s5.3,3.8,7.5,4H103.8"/>
<path class="st0" d="M32.9,25.6c-2.9-0.9-9.8-1.1-13.4-1.1S8.2,24.8,6.2,25.6s-5.3,2.3-5.2,4s6.5,2.5,8.3,2.7s9.3,0.8,11.1,0.8
	s5-0.3,5,0.7s-4,0.8-5.2,0.8c-2.8-0.2-5.7-0.3-8.5-0.2c-2.4,0.3-8.8,1.4-8.6,3.3s5.7,2.3,8.7,2.5s10.6,0.6,12.2,0.6s4.1,0,4.2,0.9
	s-4.1,0.6-5.1,0.6s-7.9-0.9-10.1-0.7S5.7,42.8,6.1,45s7.5,2.4,9.3,2.5s10.9,0.3,12.7,0.3s4.6,0.1,4.5,0.8s-3.9,0.7-4.7,0.7
	s-8.2-0.3-9.2-0.2S11,49,10.4,52.3c-0.5,3.3,10.1,3.3,11.2,3.4s12.8,0.2,13.4,0.2s4.1-0.3,4.2,0.7s-4.2,0.8-5,0.8s-9.8-0.4-11.4-0.1
	s-6.2,1.6-6,3s3.3,3,9.6,2.8s14.3-0.5,16-0.7s4.3-0.7,4.5,0.2s-3.7,1.2-4.3,1.3s-9.4,0.4-10.3,0.6c-0.8,0.1-7,0.5-6.4,2.8
	s7.2,2.3,8.9,2.2s9-0.7,11.8-1s8-1,9.1-1.1s3.5-0.6,3.5,0.2s-4,1.2-4.7,1.3s-8.7,1.1-9.8,1.3s-7,1.5-7.1,3.1s5.3,2.2,9.4,1.8
	s6.3-0.2,10-1.2s7.7-2,8.8-2.3s2.5-0.8,2.8-0.1s-4.5,1.6-5.7,1.9s-7.3,2.2-8.5,2.8s-4.1,2.3-3.6,3.3s2.4,1.4,6.3,0.6
	c3.8-0.8,7.5-2,11-3.5c2-0.9,6.9-3,7.6-3.4s2.2-1.4,2.6-0.8s-2.7,2-4,2.7s-7.4,3.5-5.9,5.2s8.9-1,9.8-1.3s7.9-3.1,11.2-4.9
	c2.4-1.2,4.6-3,6.2-5.2c1.6-2,3.2-3.8,1.1-4.4c-2-0.5-14.9-2.7-22.4-5.7s-15.3-22.3-17.5-25S40.4,28,32.9,25.6z"/>
<path class="st0" d="M60.2,30.5c-3.7-1.7-7.5-3.2-11.5-4.2c-2.7-0.5-12.1-2.4-14.4-2.5s-4.8-0.2-5,1.1s5.8,4.2,7.3,4.6
	s14.5,3.6,15.9,3.9s3,0.7,2.9,1.3s-2.5,0.1-3.3,0s-13-3.3-15-3.3s-5.9,0.2-6.2,1.2s3.8,4,5.8,4.5s13.7,2.9,16.4,3.1s5.4,0.2,5.4,0.7
	s-4.4,0.6-5.7,0.5s-10.3-1.3-12.1-1.5s-6.6-0.5-6.7,0.8s5.5,2.9,7.3,3.3s10.4,1.3,12.2,1.4s7.7-0.2,7.5,0.8s-5.7,0.6-7.5,0.5
	s-7.3-0.4-8.8-0.3s-6.9,0.1-6.4,1.7s5.5,3,8.3,3.3s11.9,0.1,14.1,0c2.2-0.1,4.7-0.5,4.9,0.3s-2.3,1.1-4.9,1.2s-7.9,0.1-10.2,0.4
	s-5.6,0.7-5.3,2.7s8.7,2.3,10.5,2.2c3-0.3,6-0.7,9-1.3c1.5-0.4,3.7-1.3,4-0.2s-2.5,1.3-3.7,1.5s-4.8,0.8-6.5,1.1s-5.5,1.6-4.8,2.7
	s4.8,1.1,7.3,1c3-0.2,6-0.5,8.9-1.2c1.9-0.4,4-1.2,4.3-0.4s-2.3,1.4-3.6,1.6s-7.3,1.2-6.3,2.6s6.6,0.8,7.8,0.6s4.9-1,5.8-1.2
	s2.3-0.9,2.4-0.1c0.2,0.8-1.8,1.1-2.3,1.3s-5.5,1.2-4.5,2.2s9.3-0.3,10.8-0.7s2.8-1.3,3-0.6s-1.5,1.4-2.4,1.6s-3,0.9-2.2,1.3
	s4.9-0.2,7.3-1.3c2.7-1.2,5.3-2.6,7.8-4.1c1-0.7,2.1-2,0-2.1S85.7,60.5,81,54.6s-5.4-10.2-7.6-14.1C70.1,34.6,67.6,33.7,60.2,30.5z"
	/>
<path class="st0" d="M98.9,61.9c-3.9-0.2-7.7-1.4-11.1-3.4c-4.1-2.6-5.6-3.8-9.2-11.6s-5-13.2-12.2-16.2s-9.5-1.4-9.8-0.7
	s0,2.6,4.3,3.3c5.2,0.9,6.7,1,6.6,1.6s-7.4-0.5-7.1,1.3s8.3,0.9,8.4,2.3s-6.5-0.7-6.3,2s8.4,1.2,8.5,2.4s-6,0.3-5.2,2.5
	s7,1.3,7.1,2.3s-4,0.4-3.7,2s7.6,1.4,7.7,2.7s-5.9,0.4-4.1,2.6s7.3,0.6,7.7,1.8s-4.7,0.5-3.9,2.2s3.6,1.5,4.4,1.5s3.8-0.8,4.2-0.1
	s-3.4,1.2-3.3,2.3s3.8,0.9,4.6,0.8s3.3-1.4,3.8-0.8s-3.6,1.6-2.3,2.8s4.3,0.1,5.4-0.4s3.6-1.6,5-1.5S98.9,61.9,98.9,61.9z"/>
<path class="st0" d="M175.5,25.6c2.9-0.9,9.8-1.1,13.4-1.1s11.3,0.4,13.3,1.1s5.4,2.3,5.2,4s-6.5,2.5-8.3,2.7s-9.3,0.8-11.1,0.8
	s-5-0.3-5,0.7s4,0.8,5.2,0.8c2.8-0.2,5.7-0.3,8.5-0.2c2.4,0.3,8.8,1.4,8.6,3.3s-5.7,2.3-8.6,2.5s-10.6,0.6-12.2,0.6s-4.1,0-4.2,0.9
	s4.1,0.6,5.2,0.6s7.9-0.9,10.1-0.7s7.3,1.1,6.9,3.3s-7.5,2.4-9.3,2.5s-10.9,0.3-12.6,0.3s-4.6,0.1-4.5,0.8s3.9,0.7,4.7,0.7
	s8.2-0.3,9.3-0.2s7.8-0.1,8.3,3.3s-10.1,3.3-11.3,3.3s-12.8,0.2-13.4,0.2s-4.1-0.3-4.2,0.7s4.2,0.8,5,0.8s9.8-0.4,11.4-0.1
	s6.2,1.6,6,3s-3.3,3-9.6,2.8s-14.3-0.5-16-0.7s-4.3-0.7-4.5,0.2s3.7,1.2,4.3,1.3s9.4,0.4,10.3,0.6s7,0.5,6.4,2.8s-7.1,2.3-8.9,2.2
	s-9-0.7-11.8-1s-8-1-9.1-1.1s-3.5-0.6-3.5,0.2s4,1.2,4.7,1.3s8.6,1.1,9.8,1.3s7,1.5,7.1,3.1s-5.3,2.2-9.4,1.8s-6.3-0.2-10-1.2
	s-7.7-2-8.9-2.3s-2.5-0.8-2.8-0.1s4.5,1.6,5.7,1.9s7.3,2.2,8.5,2.8s4.1,2.3,3.6,3.3s-2.4,1.4-6.3,0.6c-3.8-0.8-7.5-2-11-3.5
	c-2-0.9-6.9-3-7.6-3.4s-2.2-1.4-2.6-0.8s2.6,2,4,2.7s7.4,3.5,5.9,5.2s-8.9-1-9.8-1.3s-7.9-3.1-11.1-4.9c-2.4-1.2-4.6-3-6.2-5.2
	c-1.6-2-3.2-3.8-1.1-4.4c2-0.5,14.8-2.7,22.4-5.7s15.4-22.3,17.5-25S168,28,175.5,25.6z"/>
<path class="st0" d="M148.1,30.5c3.7-1.7,7.6-3.2,11.6-4.2c2.7-0.5,12.1-2.4,14.4-2.5s4.8-0.2,5,1.1s-5.8,4.2-7.3,4.6
	s-14.5,3.6-15.9,3.9s-3,0.7-2.9,1.3s2.5,0.1,3.3,0s13-3.3,15-3.3s5.9,0.2,6.1,1.2s-3.8,4-5.8,4.5S158,40,155.4,40.1
	s-5.4,0.2-5.4,0.7s4.4,0.6,5.7,0.5s10.3-1.3,12.1-1.5s6.6-0.5,6.7,0.8s-5.5,2.9-7.3,3.3s-10.4,1.3-12.2,1.4s-7.6-0.2-7.5,0.8
	s5.7,0.6,7.5,0.5s7.3-0.4,8.8-0.3s6.9,0.1,6.4,1.7s-5.5,3-8.3,3.3s-11.9,0.1-14.1,0s-4.7-0.5-4.9,0.3s2.3,1.1,4.9,1.3
	s7.9,0.1,10.2,0.4s5.6,0.7,5.4,2.7s-8.7,2.3-10.5,2.2c-3-0.3-6-0.7-9-1.3c-1.5-0.4-3.7-1.3-4-0.2s2.5,1.3,3.7,1.5s4.8,0.8,6.5,1.1
	s5.5,1.6,4.8,2.7s-4.8,1.1-7.3,1c-3-0.1-6-0.5-8.9-1.1c-1.9-0.4-4-1.2-4.3-0.4s2.3,1.4,3.6,1.6s7.3,1.2,6.3,2.6s-6.6,0.8-7.8,0.6
	s-4.9-1-5.8-1.2s-2.3-0.9-2.4-0.1c-0.2,0.8,1.8,1.1,2.3,1.3s5.5,1.2,4.5,2.2s-9.3-0.3-10.8-0.7s-2.8-1.3-3-0.6s1.5,1.4,2.4,1.6
	s3,0.9,2.2,1.3s-4.9-0.2-7.3-1.3c-2.7-1.2-5.3-2.6-7.9-4.1c-1-0.7-2.1-2,0-2.1s11.8-1.9,16.6-7.9s5.4-10.2,7.6-14.1
	C138.3,34.6,140.7,33.7,148.1,30.5z"/>
<path class="st0" d="M109.4,61.9c3.9-0.2,7.7-1.4,11.1-3.4c4.2-2.6,5.6-3.8,9.2-11.6s5-13.2,12.2-16.2s9.5-1.4,9.8-0.7
	s0,2.6-4.3,3.3c-5.2,0.9-6.7,1-6.6,1.6s7.4-0.5,7.1,1.3s-8.3,0.9-8.4,2.3s6.5-0.7,6.3,2s-8.4,1.2-8.5,2.4s6,0.3,5.2,2.5
	s-7,1.3-7.1,2.3s4,0.4,3.7,2s-7.6,1.4-7.7,2.7s5.9,0.4,4.1,2.6s-7.3,0.5-7.7,1.7s4.7,0.5,3.9,2.2s-3.6,1.5-4.5,1.5s-3.8-0.8-4.2-0.1
	s3.4,1.2,3.3,2.3s-3.8,0.9-4.6,0.8s-3.3-1.4-3.8-0.8s3.6,1.6,2.3,2.8s-4.3,0.1-5.4-0.4s-3.6-1.6-5-1.5S109.4,61.9,109.4,61.9z"/>
<polygon class="st0" points="93.9,143.3 92.6,131.7 89.9,132.8 87.5,143.3 "/>
<path class="st1" d="M106.6,80.9c1.4-0.7,1.3-11.1,1.3-11.1c-1.6-2.3-2.8-4.3-4-6.4l0,0c-1.3,2-2.4,4-4,6.4c0,0-0.2,10.6,1.3,11.1
	C103,81.3,104.8,81.3,106.6,80.9z"/>
<path class="st0" d="M93,115c-0.9-0.3-1.8-0.4-2.8-0.4c-0.7,0.2-1.8,3-1.9,3.7s-1.5,5.4-1.1,9c0.4,3.6,0.5,5.7,1.8,6.4
	s1.8,0.9,3,0.3s2.7-6.2,3.1-8.4c0.5-2.5,0.8-5.1,0.7-7.6C95.6,116.5,94.5,115.3,93,115z"/>
<polygon class="st0" points="113.8,143.3 115.2,131.7 117.8,132.8 120.3,143.3 "/>
<path class="st0" d="M114.8,115c0.9-0.3,1.8-0.4,2.8-0.4c0.7,0.2,1.8,3,1.9,3.7s1.5,5.4,1.1,9c-0.4,3.6-0.5,5.7-1.8,6.4
	s-1.8,0.9-3,0.3s-2.7-6.2-3.1-8.4c-0.5-2.5-0.8-5.1-0.7-7.6C112.1,116.5,113.3,115.3,114.8,115z"/>
<path class="st0" d="M103.8,111.2c0,0,4.3,1.9,5,3.4c0.6,1.4,1.8,2.4,3.3,2.7c1.8,0,3.6-0.5,5.2-1.3c1.5-0.8,3.3-4.3,4-6.6
	s0.6-8.7,0-12.9s-1.7-8.6-4.6-11s-6.8-2.6-8.4-2.7s-3,0.5-4.5,0.5h0.1c-1.5,0-2.8-0.6-4.5-0.5s-5.5,0.3-8.4,2.7s-4,6.7-4.6,11
	s-0.7,10.7,0,12.9s2.5,5.7,4,6.6c1.6,0.9,3.4,1.3,5.2,1.3c1.5-0.3,2.7-1.3,3.3-2.7C99.6,113.2,103.9,111.2,103.8,111.2"/>
<path class="st0" d="M103.8,27.1h6.2c0.6-0.7,1-1.5,1.1-2.4c0.1-1.2-1.1-9.2-1.7-12.6H98.3c-0.6,3.4-1.8,11.4-1.7,12.6
	c0.2,0.9,0.5,1.7,1.1,2.4H103.8"/>
<path class="st0" d="M103.8,58.2c0,0,5.6-0.1,7-0.6s2-1.3,2.1-4.3s-1-7.9-1.3-9.8s-0.8-8.5-1-10.6s-1.3-11.9-1.5-13.8
	c-0.4-1.7-0.6-3.5-0.6-5.3c0.2-0.9,0.7-1.1,1.7-3.6c1.1-2.4,1.5-5.1,1.1-7.7c-0.4-3-1.5-1-2-0.2c-1.2,1.7-2.2,3.6-2.9,5.7
	c0,0-2.6,0-2.6,0h0.1c0,0-2.6,0-2.6,0c-0.7-2-1.7-3.9-2.9-5.7c-0.6-0.8-1.6-2.9-2,0.2c-0.4,2.6,0,5.3,1.1,7.7c1,2.5,1.5,2.7,1.7,3.6
	c0,1.8-0.2,3.5-0.6,5.3c-0.3,1.8-1.3,11.6-1.5,13.7s-0.8,8.7-1,10.6s-1.4,6.8-1.3,9.8s0.7,3.9,2.1,4.3s7,0.6,7,0.6"/>
<path class="st0" d="M104.3,2.8c-1.4,0.5-3.3,3.2-3,7.7s2.6,7.7,2.2,11.1s-1.3,6.3-1,10.4s1.1,8.7,1.1,10.7s-1,4.4-0.7,7.6
	c0.3,2.5,0.4,4.9,0.2,7.4c-0.3,1.7-1,5.7-1,5.7s3.3-4.3,3.7-6s2.2-7.5,2.2-10.1s-1.2-6.2-1.2-7.8s0.9-4,0.8-5.6
	c-0.3-2.6-0.3-5.2-0.2-7.9c0.3-2.4,0.9-5.6,1-8.2S109.1,1.2,104.3,2.8z"/>
<path class="st0" d="M104.3,87.6c-2.6-0.1-4.9,1.6-5.8,4c-1.3,3.3-1.4,7.8-0.8,11.9s1.9,12,2.1,14c0.2,3.5-0.1,6.9-0.9,10.3
	c-0.9,3.3-2.2,6.5-2.2,6.5s4-3.3,4.6-5.1c0.6-1.8,0.4,0.6,0,1.2s-4.8,7.1-4.8,7.1s4-1.5,5.3-3c0.8-1,1.6-2.1,2.2-3.2
	c0,0-1.9,5-2.5,6s-2.6,3.8-2.6,3.8s4.1-3.6,4.8-5c1.7-5.2,3-10.6,3.8-16.1c0.4-4.1,0.4-8.8,0.5-12.9c0.2-3.6,0.7-7.2,1.5-10.7
	c0.3-1.9,0.4-4.7-0.3-6.2S106.4,87.7,104.3,87.6z"/>
</svg>
