<?xml version="1.0" encoding="utf-8"?>
<!-- Generator: Adobe Illustrator 22.1.0, SVG Export Plug-In . SVG Version: 6.00 Build 0)  -->
<svg version="1.1" id="simple" xmlns="http://www.w3.org/2000/svg" xmlns:xlink="http://www.w3.org/1999/xlink" x="0px" y="0px"
	 viewBox="0 0 531.7 539" style="enable-background:new 0 0 531.7 539;" xml:space="preserve">
<style type="text/css">
	.st0{fill:#231F20;stroke:#FFFFFF;stroke-width:5;stroke-linecap:round;stroke-linejoin:round;}
</style>
<title>phoenix_mono</title>
<path class="st0" d="M243.8,277.8c-6.5,10-14.5,19-23.5,26.8c-14.5,12.3-20.5,18.5-30.5,18.5s-6-3.5-1.5-9.8s17.8-20.3,17.8-20.3
	s-12.3,9.7-17.4,12.8s-19.9,12.2-27.1,14.9s-10.2,2.7-16.4,1.1s-4.1-4.6-0.9-7.3s31.5-27,31.5-27s-5.9,5.6-23.3,10.9
	s-11.1,3.9-20.6,5.4s-13.1,3.6-20.2-0.1s-10.6-6.6-12-7.8s-4.1-3.8,2.6-5.9c6.7-2.1,14.1-3.4,18.8-5.2c4.9-1.8,9.7-3.9,14.4-6.3
	c3.3-1.9,11.1-5.1,11.1-5.1s-9.9,3.8-17.7,3.9s-24.8-0.7-29.4-1.2s-15.4-2.7-18-5.5s-4.9-4.6-7.3-11.6c-2.4-7,12.6-4.6,19.1-4.4
	s14.6,0.4,22.7-1.4s13.6-2.9,13.6-2.9s-10.8-0.9-17.6-2s-14.4-2.2-20.9-3.8s-13.5-4.3-16.6-6.3s-7-9.4-7.6-11.6s-1.6-4.3,5.4-3.6
	s17.9,2.9,21.1,3.1s13.4,0.3,15.3,0.1s7.1-0.8,7.1-0.8s-8.5-0.9-12-1.6s-13.6-3.9-18.5-5.5s-17.4-6.3-18.7-7.7c-2-2.5-3.6-5.2-5-8.1
	c-0.5-1.4-2.8-6.4-1.4-6.9s4.3-0.9,9.6-0.4s15,0.8,19,1.3s17.3,2.9,17.3,2.9s-18.8-3.2-28.3-7.4s-18.4-7.8-21.9-11.1
	s-5.3-5.6-6.4-10.8s3.2-3,6-2.4s19.6,3.6,24.8,4.4s20.8,4.8,20.8,4.8s-30-10.2-39.1-14.1s-20.8-9.3-22.6-11.1s-6.7-12.8-7.1-14.6
	c-0.4-1.8,0-3.9,3.5-3.1s28.6,7.1,34.4,9s18.8,6.3,18.8,6.3s-16.6-5.9-26.1-11.1c-9.7-5.3-19.2-11.2-28.3-17.6
	c-7.3-5.3-13.3-10-15.9-17s-6.5-17.4-0.4-14.9s15.9,6.4,20.3,9.1s19.9,11.1,23.4,12.9s12.6,6.6,12.6,6.6s-22.1-12.2-32.4-20.6
	S17,74.8,14.7,72.3s-4.2-3.6-7-10.6S2.5,47.8,2.5,45.6S2.4,41,6.3,42.5s14.4,7,17.6,9.5S47.3,69,50.7,71.7s11.9,8.8,11.9,8.8
	S35.9,61.8,28.3,52s-18.1-22.5-20-26.1s-4.8-10.7-5-14.3s1.3-8.5,2.3-8.9s2.4-0.9,6.9,4.9s12.3,15.8,17.4,20
	c5.2,4.2,19.3,14.2,22.6,15.8s12.6,5.1,12.6,5.1c29.8,18.1,62.6,40.1,75.3,64.8s22.8,85.2,33.5,102.1s42.3,26.6,54.5,29.4
	s37.5,15,37.5,15L243.8,277.8"/>
<path class="st0" d="M245.4,263.1c0,0-13,14.4-15.8,16.7s-14.8,12.6-18.3,13.5c-3.2,0.9-6.6,0.5-9.6-1c-2.8-1.4-0.8-4.8,0.7-7.3
	c2.1-3.3,4.4-6.5,6.9-9.5c1.5-1.6,8.1-8.3,8.1-8.3s-13.5,11.9-17.6,14.7s-9.9,7.8-13.8,8.1s-10.2-0.7-11.1-1.3s-4.1-2.7-0.6-6.3
	s12.2-12.1,13.7-13.3s9.2-6.6,9.2-6.6s-12.4,7.6-16.9,9.6s-19,7.5-22.4,7.2s-8.6-0.8-12-4.7s-4.8-5.1,1.1-8.5s13-8.3,15.6-8.8
	s15.7-3.8,15.7-3.8s-18.9,3.8-24.5,4.3s-15.1,1.1-18.4-0.8c-3.3-1.9-7-4.8-8.2-7.7s-2.8-4.9,1.1-6.8s10.3-4.7,15.3-5.4
	s17.3-2.3,17.3-2.3s-13.3,0.4-17.4,0s-16.2-1.4-19.6-3.3s-8.8-6.3-9.8-10.5s-1.3-6.4,2.7-7.1s13.1-1.2,16.7-0.8s17.3,1.9,17.3,1.9
	s-24.2-4.1-31.3-6.2s-10.2-3.3-12.4-6.7s-5.8-8.6-3.9-10.6s7.5-0.8,12.6-0.4s11,0.8,13.9,1.3l12.3,2.2c0,0-21.1-5.1-26.6-7
	s-11.8-3.8-13.8-7.7s-4.8-12.2-2.9-13.3s12.3-0.7,17.1,0s16.2,2.9,16.2,2.9s-21-5-26.4-6.8s-11.5-4.3-13.7-7.5s-6.6-11.4-4.7-13.4
	s15.2-1.3,19.8,0l20.1,5.4c0,0-23.4-6.8-28.9-9.3s-19.8-8.1-22.3-13.4s-3.8-8.7-1.9-10s4.2-1.3,6.3-1s15.6,2.8,20.5,4.5
	s20.1,7.3,20.1,7.3s-26.3-10.4-32.7-14.2s-15.8-9.9-19.4-13.4s-6.7-6.5-7.3-12.3s-0.5-9.3,1.6-9.9s4.6,0.5,6.3,1.1
	s19.4,7.4,23.7,9.8s21.7,12.8,21.7,12.8S81.1,78.2,78,75.8s-14.8-12.4-15.7-14s-4.6-9-3.3-12.1s3.8-3.9,7.8-2.8s13.8,4.3,17.8,6.5
	s14.3,7.7,17.1,9.8c2.8,2.2,7.3,5.6,7.3,5.6s21.9,21.3,29.4,33.5s26,74.8,32.5,90.8s22.8,45.8,35.5,47.3s59.5,11.3,59.5,11.3
	L245.4,263.1z"/>
<path class="st0" d="M287.9,277.8c6.5,10,14.5,18.9,23.5,26.7c14.5,12.3,20.5,18.5,30.5,18.5s6-3.5,1.5-9.8s-17.8-20.3-17.8-20.3
	s12.3,9.7,17.4,12.8s19.9,12.2,27.1,14.9s10.2,2.7,16.4,1.1s4.1-4.6,0.9-7.3s-31.5-27-31.5-27s5.9,5.6,23.3,10.9s11.1,3.9,20.6,5.4
	s13.1,3.6,20.2-0.1s10.6-6.6,12-7.8s4.1-3.8-2.6-5.9s-14.1-3.4-18.8-5.2c-4.9-1.8-9.7-3.9-14.4-6.3c-3.3-1.9-11.1-5.1-11.1-5.1
	s9.9,3.8,17.7,3.9s24.8-0.7,29.4-1.2s15.4-2.7,18-5.5s4.9-4.6,7.3-11.6c2.4-7-12.6-4.6-19.1-4.4s-14.6,0.4-22.7-1.4
	s-13.6-2.9-13.6-2.9s10.8-0.9,17.6-2s14.4-2.2,20.9-3.8s13.5-4.3,16.6-6.3s7-9.4,7.6-11.6s1.6-4.3-5.4-3.6s-17.9,2.9-21.1,3.1
	s-13.4,0.3-15.3,0.1s-7.1-0.8-7.1-0.8s8.5-0.9,12-1.6s13.6-3.9,18.5-5.5s17.4-6.3,18.7-7.7c1.9-2.5,3.6-5.2,5-8.1
	c0.5-1.4,2.8-6.4,1.4-6.9s-4.3-0.9-9.6-0.4s-15,0.8-19,1.3s-17.3,2.9-17.3,2.9s18.8-3.2,28.3-7.4s18.5-7.8,22-11.1s5.3-5.6,6.4-10.8
	s-3.2-3-6-2.4s-19.6,3.6-24.8,4.4s-20.8,4.8-20.8,4.8s30-10.2,39.1-14.1s20.8-9.3,22.6-11.1s6.7-12.8,7.1-14.6s0-3.9-3.5-3.1
	s-28.6,7.1-34.4,9s-18.8,6.3-18.8,6.3s16.6-5.9,26.1-11.1c9.7-5.3,19.2-11.2,28.3-17.6c7.3-5.3,13.3-10,15.9-17s6.5-17.4,0.4-14.9
	s-15.9,6.4-20.3,9.1s-19.9,11.1-23.4,12.9s-12.6,6.6-12.6,6.6s22.1-12.2,32.4-20.6s25.3-21.5,27.6-24s4.2-3.6,7-10.6
	s5.2-13.9,5.2-16.2s0.1-4.6-3.8-3.1s-14.4,7-17.6,9.5S484.4,69.1,481,71.8s-11.9,8.8-11.9,8.8s26.8-18.7,34.3-28.5
	s18.1-22.5,20-26.1s4.8-10.7,5-14.3s-1.3-8.5-2.3-8.9s-2.4-0.9-6.9,4.9s-12.3,15.8-17.4,20s-19.3,14.2-22.6,15.9s-12.6,5.1-12.6,5.1
	c-29.8,18.1-62.6,40.1-75.3,64.8s-22.8,85.2-33.5,102.1s-42.3,26.6-54.5,29.4S265.8,260,265.8,260L287.9,277.8"/>
<path class="st0" d="M286.3,263.2c0,0,13,14.4,15.8,16.7s14.8,12.6,18.3,13.5c3.2,0.9,6.6,0.5,9.6-1c2.8-1.4,0.8-4.8-0.7-7.3
	c-2.1-3.3-4.4-6.5-6.9-9.5c-1.5-1.6-8.1-8.3-8.1-8.3s13.5,11.9,17.6,14.7s9.9,7.8,13.8,8.1s10.2-0.7,11.1-1.3s4.1-2.7,0.6-6.3
	s-12.2-12.1-13.7-13.3s-9.2-6.6-9.2-6.6s12.4,7.6,16.9,9.6s19,7.5,22.4,7.2s8.6-0.8,12-4.7s4.8-5.1-1.1-8.5s-13-8.3-15.6-8.8
	s-15.7-3.8-15.7-3.8s18.9,3.8,24.5,4.3s15.1,1.1,18.4-0.8c3.3-1.9,7-4.8,8.2-7.7s2.8-4.9-1.1-6.8s-10.3-4.7-15.3-5.4
	s-17.3-2.3-17.3-2.3s13.3,0.4,17.4,0s16.2-1.4,19.6-3.3s8.8-6.3,9.8-10.5s1.3-6.4-2.7-7.1s-13.1-1.2-16.7-0.8s-17.3,1.9-17.3,1.9
	s24.2-4.1,31.3-6.2s10.2-3.3,12.4-6.7s5.8-8.6,3.9-10.6s-7.5-0.8-12.6-0.4s-11,0.8-13.9,1.3l-12.3,2.1c0,0,21.1-5.1,26.6-7
	s11.8-3.8,13.8-7.7s4.8-12.2,2.9-13.3s-12.3-0.7-17.1,0s-16.2,2.9-16.2,2.9s21-5,26.4-6.8s11.5-4.3,13.7-7.5s6.6-11.4,4.7-13.4
	s-15.2-1.3-19.8,0l-20.1,5.4c0,0,23.4-6.8,28.9-9.3s19.8-8.1,22.3-13.4s3.8-8.7,1.9-10s-4.2-1.3-6.3-1s-15.6,2.8-20.5,4.5
	s-20.1,7.3-20.1,7.3s26.3-10.4,32.7-14.2s15.8-9.9,19.4-13.4s6.7-6.5,7.3-12.3s0.5-9.3-1.6-9.9s-4.6,0.5-6.3,1.1s-19.4,7.4-23.7,9.8
	s-21.7,12.8-21.7,12.8s33.8-20.8,36.8-23.3s14.8-12.4,15.7-14s4.6-9,3.3-12.1s-3.9-3.9-7.8-2.8s-13.8,4.3-17.8,6.5
	s-14.3,7.7-17.1,9.8c-2.8,2.2-7.3,5.6-7.3,5.6s-21.9,21.3-29.4,33.5s-26,74.8-32.5,90.8s-22.8,45.7-35.5,47.2s-59.5,11.3-59.5,11.3
	L286.3,263.2z"/>
<path class="st0" d="M252.9,241.5c0,0-16.8-5-23.4-6s-20.2-2.8-26.1-7.8s-16.9-16-19.2-21.3s-16.8-53.7-17.2-54.7
	s-12-34.7-16.3-43.6s-14-22.8-19.5-27.4s-11-8.9-13.3-9.9s-11-3.9-12.6-1.6s-0.5,8.2,0.4,9.8s6.4,8.8,9.3,11.3s8,6.4,9.8,7.3
	s7.4,3.1,7.4,3.1s-8.8-3.4-12.3-3.4s-5.8,0.5-6.9,2.8s0,7.6,3.3,10.3c3.4,2.7,7.1,5,10.9,7c3.3,1.7,14.5,5.8,14.5,5.8
	s-10-2.7-13.1-2.2s-7.8,2-8.3,4.8s2.4,8.2,5.4,9.8s24,10.7,24,10.7s-12.3-4.7-16.3-3.9s-6.8,2.3-7.1,5.1s2.7,9.3,7.7,11.5
	s19.3,8,19.3,8s-10.5-2.9-15.2-2.5s-7,2.2-6.5,5.7s4.8,9.3,8.4,11.1s20.8,7.9,20.8,7.9s-14.2-5-17.6-2.8s-2.9,9.4,1.4,12.8
	s11.9,7.1,14.8,7.8s10.3,2.1,10.3,2.1s-14.1-3.2-17.3-1.4s-3.7,7.2-0.5,10.7s7.7,4.6,11.4,5.3s15.1,3.1,15.1,3.1s-9.3,0.9-12.8,2.7
	s-6.3,2.9-5.2,6.1s3.3,7.1,10.3,7.3c4.4,0.2,8.8,0.2,13.2-0.1c2.2-0.3,11.2-2.2,11.2-2.2s-9,3.8-12.3,6.3s-6,5-5.7,6.8
	s5.2,5.3,8.1,5.6s9.8-0.5,13.9-3.1c4.1-2.6,11.4-9.3,11.4-9.3s-11,9.4-12.3,11.9s-2.8,3.9,0,5.6s4.7,2.3,6.8,1.8s10.8-4.8,12.8-6.5
	s8.5-9.3,8.5-9.3s-9.8,10.7-10.5,13.7s1.8,4.2,5.1,4.4s9.1-3,11-5.1c3.5-3.5,7.3-6.7,11.2-9.8c1.5-0.9,6.7-3.3,6.7-3.3"/>
<path class="st0" d="M265.9,183.2l8.8-4.1c0,0-0.1-2.3-0.4-7.1s-1.5-7.5-3.3-11.5s-4.3-7-5.1-7l0,0c-0.9,0-3.4,3-5.1,7
	s-3,6.8-3.3,11.5s-0.4,7.1-0.4,7.1L265.9,183.2"/>
<path class="st0" d="M278.9,241.5c0,0,16.8-5,23.4-6s20.2-2.8,26.1-7.8s16.9-16,19.2-21.3s16.8-53.7,17.2-54.7s12-34.7,16.3-43.6
	s14-22.8,19.5-27.4s11-8.9,13.3-9.9s11-3.9,12.6-1.6s0.5,8.2-0.4,9.8s-6.4,8.8-9.3,11.3s-8,6.4-9.8,7.3s-7.4,3.1-7.4,3.1
	s8.8-3.4,12.3-3.4s5.8,0.5,6.9,2.8s0,7.6-3.3,10.3c-3.4,2.7-7.1,5-10.9,7c-3.3,1.7-14.5,5.8-14.5,5.8s10-2.7,13.1-2.2s7.8,2,8.3,4.8
	s-2.4,8.2-5.4,9.8s-24,10.7-24,10.7s12.3-4.7,16.3-3.9s6.8,2.3,7.1,5.1s-2.7,9.3-7.7,11.5s-19.3,8-19.3,8s10.5-2.9,15.2-2.5
	s7,2.2,6.5,5.7s-4.8,9.3-8.4,11.1s-20.8,7.9-20.8,7.9s14.2-5,17.6-2.8s2.9,9.4-1.4,12.8s-11.9,7.1-14.8,7.8s-10.3,2.1-10.3,2.1
	s14.1-3.2,17.3-1.4s3.7,7.2,0.5,10.7s-7.7,4.6-11.4,5.3s-15.1,3.1-15.1,3.1s9.3,0.9,12.8,2.7s6.3,2.9,5.2,6.1s-3.3,7.1-10.3,7.3
	c-4.4,0.3-8.8,0.3-13.2,0c-2.2-0.3-11.2-2.2-11.2-2.2s9,3.8,12.3,6.3s6,5,5.7,6.8s-5.2,5.3-8.1,5.6s-9.8-0.5-13.9-3.1
	c-4.1-2.6-11.4-9.3-11.4-9.3s11,9.4,12.3,11.9s2.8,3.9,0,5.6s-4.7,2.3-6.8,1.8s-10.8-4.8-12.8-6.5s-8.5-9.3-8.5-9.3
	s9.9,10.7,10.5,13.7s-1.8,4.2-5.1,4.4s-9.1-3-11-5.1c-3.5-3.5-7.3-6.8-11.2-9.8c-1.5-0.9-6.7-3.3-6.7-3.3"/>
<path class="st0" d="M265.9,215.5c1.8,0,10.8,2.1,14.8,6.5s5.4,8.4,8.8,15.3s4.9,22.7,6.1,22.7s1.4-8.2,1.6-12.8s-2.4-16.6-3.9-22.1
	s-5.9-13.4-7.3-17.4s-6.3-21.5-8.5-27.3s-10-9.3-11.5-9.3l0,0c-1.5,0-9.3,3.5-11.5,9.3s-7.1,23.2-8.5,27.3s-5.8,11.9-7.3,17.4
	s-4.1,17.5-3.9,22.1s0.3,12.8,1.6,12.8s2.8-15.8,6.1-22.7s4.8-10.8,8.8-15.3S264.2,215.5,265.9,215.5"/>
<path class="st0" d="M175.7,461.9c-9.1,5.1-28,18.1-31.7,22.9c-3.7,4.8-8.1,10.3-10,15.5s-3.5,8.2-2.3,9.7s5.3,1,10.6-1.6
	s14-6.8,18.2-10.8s10.8-10.5,13.2-14.3s9.3-17.7,9.3-17.7L175.7,461.9z"/>
<path class="st0" d="M201.9,422.8c-3.2,4.6-8.4,8.2-15.4,12s-12.9,6.3-17.1,12s-8.3,12.5-8.8,14.3s-1.3,5.8-0.6,6.7s2.5,1.8,8.7,0
	s15.4-8.1,15.4-8.1s-6.4,10.4-6.9,14.6s0.1,8,2.7,8.3s8.8-0.9,16.3-7.8s12.8-11.9,15.9-22.8s3.4-12.2,2.8-21s-1.6-8.8-1.6-8.8
	L201.9,422.8z"/>
<path class="st0" d="M213.4,373.6c-5.2,5.4-13.6,14-15.3,19.3c-1.9,6.2-2.1,12.7-0.7,19c1.6,6.3,3.7,12.1,4.6,13.1s2.7,1.5,4.5-0.8
	c1.1-1.5,2-3.2,2.4-4.9c0,0,0.3,4.6,1.4,6.2s2.6,2.1,6.3-0.4c4.6-3.1,8.2-7.5,10.5-12.5c2.8-6.1,4.4-10.9,2.8-16.6
	s-5.6-20.6-5.6-20.6L213.4,373.6z"/>
<path class="st0" d="M246.9,309.1c-2.3,7.9-5,17.6-7.7,20.3s-13.1,8.6-15.5,10.6s-8.9,9.7-10.6,15.8s-3,13.7-1.3,17s3.3,3.1,4.3,2.5
	c1.1-1,2.1-2.1,3-3.3c0,0-0.6,3.8,1.6,4.8s7-0.4,12.5-4.6s9.7-8.8,11.8-12.6s15.9-27.3,15.9-27.3L246.9,309.1z"/>
<path class="st0" d="M265.9,536.5c5.7,0,9-21.8,9.1-27c0.1-5.2-3.6-20.8-3.6-20.8l-5.5-16.1l0,0l-5.5,16.1c0,0-3.7,15.7-3.6,20.8
	C257,514.7,260.3,536.5,265.9,536.5"/>
<path class="st0" d="M265.9,475.6c-0.4,14,8.5,29,12.9,27.8s5.9-22,6.1-28.6s-2-12.9-5.1-18.7s-4.7-13.9-4.7-13.9l-9.3-28.7l0,0
	l-9.3,28.7c0,0-1.6,8.1-4.7,13.9s-5.3,12.1-5.1,18.7s1.7,27.3,6.1,28.6S266.3,489.7,265.9,475.6"/>
<path class="st0" d="M265.9,247.8l14.8-3.7c0,0-4.1-20.2-4.4-23.3s-2.4-16.1-3.1-17.4s-3.3-14.8-7.3-14.8l0,0
	c-4,0-6.5,13.6-7.3,14.9s-2.9,14.3-3.1,17.4s-4.4,23.3-4.4,23.3L265.9,247.8"/>
<path class="st0" d="M356.2,461.9c9.1,5.1,28,18.1,31.7,22.9s8.1,10.3,10,15.5s3.5,8.2,2.3,9.7s-5.3,1-10.6-1.6s-14-6.8-18.2-10.8
	s-10.8-10.5-13.2-14.3s-9.3-17.8-9.3-17.8L356.2,461.9z"/>
<path class="st0" d="M329.9,422.8c3.2,4.6,8.4,8.2,15.4,12s12.9,6.3,17.1,12s8.3,12.5,8.8,14.3s1.3,5.8,0.6,6.7s-2.5,1.8-8.7,0
	s-15.4-8.1-15.4-8.1s6.4,10.4,6.9,14.6s-0.1,8-2.7,8.3s-8.8-0.9-16.3-7.8s-12.8-11.9-15.9-22.8s-3.4-12.2-2.8-21s1.6-8.8,1.6-8.8
	L329.9,422.8z"/>
<path class="st0" d="M318.4,373.5c5.2,5.4,13.6,14,15.3,19.3c1.9,6.2,2.1,12.7,0.7,19c-1.6,6.3-3.7,12.1-4.6,13.1s-2.7,1.5-4.5-0.8
	c-1.1-1.5-2-3.2-2.4-4.9c0,0-0.3,4.6-1.4,6.2s-2.6,2.1-6.3-0.4c-4.6-3.1-8.2-7.5-10.5-12.5c-2.8-6.1-4.4-10.9-2.8-16.6
	s5.6-20.6,5.6-20.6L318.4,373.5z"/>
<path class="st0" d="M284.9,309.1c2.3,7.9,5,17.6,7.7,20.3s13.1,8.6,15.5,10.6s8.9,9.7,10.6,15.8s3,13.6,1.3,17s-3.3,3.1-4.3,2.5
	c-1.1-1-2.1-2.1-3-3.3c0,0,0.6,3.8-1.6,4.8s-7-0.4-12.5-4.6s-9.7-8.8-11.8-12.7S271,332.2,271,332.2L284.9,309.1z"/>
<path class="st0" d="M265.9,369.5l9.1,18.7c1,4.4,2.3,11.7,5.3,18.5c2.3,5.2,3.4,10.8,3.2,16.4c-0.3,3.7-3.7,19.5-7.9,20.8
	s-7.3-9.4-9.6-26.3l0,0c-2.3,16.8-5.3,27.5-9.6,26.3s-7.7-17.1-7.9-20.8c-0.2-5.6,0.9-11.3,3.2-16.4c2.9-6.8,4.3-14.1,5.3-18.5
	L265.9,369.5"/>
<path class="st0" d="M265.9,373.5c0,0-1.7,7.4-2.3,8.8s-1.8,8.7-5.6,8c-1.2-0.2-7.7-12.1-7.5-26.8s3.6-22.8,7.2-31.3l8.2-2l0,0
	l8.2,2c3.6,8.4,7,16.5,7.2,31.3s-6.3,26.6-7.5,26.8c-3.8,0.7-5-6.5-5.6-8S265.9,373.5,265.9,373.5"/>
<path class="st0" d="M265.9,336.1c-16.3-0.4-22.8-27-22.9-53.7s8.7-50.5,22.9-50.8l0,0c14.3,0.3,23.1,24,22.9,50.8
	S282.2,335.7,265.9,336.1"/>
</svg>
