<?xml version="1.0" encoding="utf-8"?>
<!-- Generator: Adobe Illustrator 22.1.0, SVG Export Plug-In . SVG Version: 6.00 Build 0)  -->
<svg version="1.1" id="simple" xmlns="http://www.w3.org/2000/svg" xmlns:xlink="http://www.w3.org/1999/xlink" x="0px" y="0px"
	 viewBox="0 0 197.7 193.1" style="enable-background:new 0 0 197.7 193.1;" xml:space="preserve">
<style type="text/css">
	.st0{fill:#231F20;stroke:#FFFFFF;stroke-width:2;stroke-linecap:round;stroke-linejoin:round;}
</style>
<title>wyvern_mono</title>
<path class="st0" d="M98.7,14.2c0,0,4,4.2,7.1,7.8c2.1,2.2,4.7,3.9,7.6,5c0,0-4.6-8.1-5.9-10.9c-0.7-1.5-1.8-2.8-3.1-3.8H92.8
	c-1.4,1-2.5,2.3-3.1,3.8C88.3,18.9,83.8,27,83.8,27c2.9-1.1,5.5-2.8,7.6-5c3.1-3.5,7.1-7.8,7.1-7.8L98.7,14.2z"/>
<path class="st0" d="M83.2,117.3c0,0-4.1,0-4.5,2.1s0.5,8.3,1.9,11.7s1.2,4,3.4,4.2s2.8-0.5,3.2-2.4s0.5-12.4,0.5-12.4
	s-0.1-3.1-2.2-3.5S83.2,117.3,83.2,117.3z"/>
<path class="st0" d="M114.1,117.3c0,0,4.1,0,4.5,2.1s-0.5,8.3-1.9,11.7s-1.2,4-3.4,4.2s-2.8-0.5-3.2-2.4s-0.5-12.4-0.5-12.4
	s0.1-3.1,2.2-3.5S114.1,117.3,114.1,117.3z"/>
<path class="st0" d="M98.4,93.9c0,0,9.5-0.8,12.9,0s4.5,0.7,6.1,5.2c1.4,4.4,1.8,9.1,1.1,13.7c-0.5,3.5-0.9,5.5-2.7,5.9
	c-1.6,0.5-3.4,0.1-4.8-0.9c-1.6-1.2-2.3-4.8-2.5-7.3S98.4,97.9,98.4,97.9L98.4,93.9z"/>
<path class="st0" d="M112.9,134.4c1.3,0.1,2.8,0.3,3.1,3.1s1,9.1,0.9,10.6s-0.3,5.6-0.3,5.6s-1.3-8.2-1.4-9.1s-1.3-2-1.6-0.3
	s-1.5,9.3-1.5,9.3s-0.8-6.3-0.7-7.8s-0.9-3.6-1.6-0.6s-1.9,8.6-1.9,8.6c-0.1-3.1,0.2-6.1,0.6-9.1c0.8-5.4,0.4-9.5,2.8-10.3H112.9z"
	/>
<path class="st0" d="M84.3,134.4c-1.3,0.1-2.8,0.3-3.1,3.1s-1,9.1-0.9,10.6s0.3,5.6,0.3,5.6s1.3-8.2,1.4-9.1s1.3-2,1.6-0.3
	s1.5,9.3,1.5,9.3s0.8-6.3,0.7-7.8s0.9-3.6,1.6-0.6s1.9,8.6,1.9,8.6c0.1-3.1-0.2-6.1-0.6-9.1c-0.8-5.4-0.4-9.5-2.8-10.3H84.3z"/>
<path class="st0" d="M98.9,93.9c0,0-9.5-0.8-12.9,0s-4.5,0.7-6.1,5.2c-1.4,4.4-1.8,9.1-1.1,13.7c0.5,3.5,0.9,5.5,2.7,5.9
	c1.6,0.5,3.4,0.1,4.8-0.9c1.6-1.2,2.3-4.8,2.5-7.3s10.2-12.5,10.2-12.5L98.9,93.9z"/>
<path class="st0" d="M98.8,21l-4.4,4.2c0,0-0.4,11-0.8,13.9S92.2,52.4,91.2,55s-4.7,12-5.4,14.8s-1.6,11.9-1.2,19.1
	s0.2,14.3,2.3,20.9s5.4,15.1,9.6,20.5s5.8,10.3,0.5,14.8s-8.3,6.9-12.8,13.1s-5.5,10.6-5.6,14s1.8,12.6,6.8,16.4s8.1,4.3,14.1,2.9
	s9-5.4,10.8-9.3s1.6-5.3,1.6-5.3s-2.1,2.3-3.1,3.6s-3.8,4.4-5.2,5.1s-6.5,2.8-10.1,0.9s-5.9-4.5-6.8-8.1s0.9-10.3,4.9-13.9
	s15.7-11,18.4-15.4s4.6-10.3,3.7-15.8s-4.7-13.2-4.8-21.9c-0.1-8.1,1.8-13.5,2.6-20.8c0.6-6.4,0.6-12.8-0.1-19.1
	c-0.5-5.6-3.5-12.6-4.5-17.5s-2.6-10-3.1-15.1s-1.5-14.4-1.8-17S98.8,21,98.8,21z"/>
<polygon class="st0" points="98.6,13.1 104.7,18.8 98.6,42 92.4,18.8 "/>
<path class="st0" d="M98.6,17.1l4.4,4.5c0,0,1.1,3.1,1.8,6.3c0.6,2.3,1.3,4.5,2.2,6.7c0.4,1.4,1.5,2.5,2.9,2.9
	c-0.6-3.2-1.8-9.3-2.3-14c-0.8-5.5-2.2-11-3.9-16.3c-1.4-4.3-3.6-6.2-5.1-6.2s-3.7,1.9-5.1,6.2c-1.8,5.4-3.1,10.9-3.9,16.4
	c-0.5,4.7-1.8,10.8-2.3,14c1.4-0.4,2.5-1.6,2.9-3c0.9-2.2,1.6-4.4,2.2-6.7c0.8-3.1,1.8-6.3,1.8-6.3L98.6,17.1z"/>
<polygon class="st0" points="98.6,75.5 104.2,69.4 98.6,63.2 93,69.4 "/>
<polygon class="st0" points="98.6,55.7 102.1,52 98.6,48.1 95,52 "/>
<path class="st0" d="M89.3,65.6l-0.4,7.1c0,0-7.8,2.4-12.3,7.3S68.4,93.6,67.9,97S66,113.5,66,113.5s-6.9-3-11.1-2.7
	s-6.9,2.1-9.4,5.3s-9.1,13.3-9.1,13.3s-8.8,0.3-12.2,1.5s-6.8,5.7-8.4,8.2s-7.1,19.6-7.1,19.6l-4.5-35.2L2.9,95.7L6,81.1l10.8-20.3
	l13.8-13.8l28-17.8l12.8,30.4L89.3,65.6z"/>
<path class="st0" d="M55,30.8c0,0-6.4,8.4-11.9,17.3S28.3,78.6,27.5,80.2s-3,4.6-0.8,16.4s6.3,28.3,7.5,31.3s3.9,9.3,3.9,9.3
	s1.5-4-0.5-11.1S30.4,93.7,30,90.1s2.4-11.5,5.5-17.9s19-34.7,19-34.7s2.4-3.5,1.6,0.7s-5,34.1-5.3,35.9s0,3.3,1.5,7.9
	s9.5,30.9,10.3,32.6s4.5,9.6,4.5,9.6c1.3-3.5,1.3-7.4,0-10.9c-2.1-5.8-10.5-30.6-11.3-33.4s-1.4-5-0.3-13.6
	c1.1-8.6,5.6-34.3,5.6-34.3L55,30.8z"/>
<path class="st0" d="M91.7,63.8l-18.4-5.5c0,0-11.3-29-11.6-29.9s-1.3-1.7-3.4-0.8s-16.5,7.4-25.9,15S16,56.6,9.9,68.3
	S1.4,84.2,1,94.6s1.4,27.5,1.9,34.7S6.4,163.6,9,170c0,0,2.4-3.1,1-12.3s-3.9-34.5-3.9-39s-2-24-0.6-29.4s9.4-22.5,12.6-26.9
	s17.3-17.3,25.8-22.6c4.7-3,9.6-5.7,14.8-8l10.9,29.4l19.9,6.4L91.7,63.8z"/>
<path class="st0" d="M108.4,65.6l0.4,7.1c0,0,7.8,2.4,12.3,7.3s8.2,13.6,8.7,16.9s1.9,16.5,1.9,16.5s6.9-3,11.1-2.7s6.9,2.1,9.4,5.3
	s9.1,13.3,9.1,13.3s8.8,0.3,12.2,1.5s6.8,5.7,8.4,8.2s7.1,19.6,7.1,19.6l4.5-35.2l1.4-27.7l-3.1-14.6l-10.8-20.3L167,47.1l-28-17.8
	l-12.8,30.4L108.4,65.6z"/>
<path class="st0" d="M142.6,30.8c0,0,6.4,8.4,11.9,17.3s14.9,30.4,15.6,32.1s3,4.6,0.8,16.4s-6.3,28.3-7.5,31.3s-3.8,9.3-3.8,9.3
	s-1.5-4,0.5-11.1s7.3-32.3,7.6-35.9s-2.4-11.5-5.5-17.9s-19-34.7-19-34.7s-2.4-3.5-1.6,0.7s5,34.1,5.3,35.9s0,3.3-1.5,7.9
	s-9.5,30.9-10.3,32.6s-4.5,9.6-4.5,9.6c-1.3-3.5-1.3-7.4,0-10.9c2.1-5.8,10.5-30.6,11.3-33.4s1.4-5,0.3-13.6s-5.6-34.3-5.6-34.3
	L142.6,30.8z"/>
<path class="st0" d="M106,63.8l18.4-5.5c0,0,11.3-29,11.6-29.9s1.3-1.7,3.4-0.8s16.5,7.4,25.9,15s16.3,14.1,22.4,25.7
	s8.5,15.9,8.9,26.4s-1.4,27.5-1.9,34.7s-3.4,34.3-6.1,40.7c0,0-2.4-3.1-1-12.3s3.9-34.5,3.9-39s2-24,0.6-29.4s-9.4-22.5-12.6-26.9
	s-17.3-17.2-25.8-22.6c-4.7-3-9.6-5.7-14.8-8l-10.9,29.4l-19.9,6.4L106,63.8z"/>
<polygon class="st0" points="98.6,98.6 105.7,91.5 98.6,84 91.4,91.5 "/>
<polygon class="st0" points="98.6,108.4 94.3,114.9 99.8,118.6 103.5,113.1 "/>
<polygon class="st0" points="103,132.5 107.2,134 108.4,129.3 104.3,128.1 "/>
<polygon class="st0" points="102.2,144.8 102.6,146.8 104.8,146.8 105.5,143.6 "/>
</svg>
